<svg width="56" height="55" viewBox="0 0 56 55" fill="none" xmlns="http://www.w3.org/2000/svg">
<g clip-path="url(#clip0_1_1774)">
<path fill-rule="evenodd" clip-rule="evenodd" d="M58.0142 -3.01326C59.3029 -1.72453 59.3029 0.364913 58.0142 1.65364L43.0618 16.6059C41.7731 17.8947 39.6837 17.8947 38.3949 16.6059C37.1062 15.3172 37.1062 13.2277 38.3949 11.939L53.3473 -3.01326C54.636 -4.30199 56.7255 -4.302 58.0142 -3.01326Z" fill="white"/>
<path fill-rule="evenodd" clip-rule="evenodd" d="M35.7095 19.2914C36.9982 20.5802 36.9982 22.6696 35.7095 23.9583L31.1878 28.48C29.8991 29.7687 27.8096 29.7687 26.5209 28.48C25.2321 27.1913 25.2321 25.1018 26.5209 23.8131L31.0426 19.2914C32.3313 18.0027 34.4208 18.0027 35.7095 19.2914Z" fill="white"/>
<path fill-rule="evenodd" clip-rule="evenodd" d="M23.8345 31.1659C25.1232 32.4547 25.1232 34.5441 23.8345 35.8328L8.88216 50.7851C7.59342 52.0739 5.50397 52.0739 4.21523 50.7851C2.9265 49.4964 2.9265 47.4069 4.21523 46.1182L19.1676 31.1659C20.4563 29.8772 22.5458 29.8772 23.8345 31.1659Z" fill="white"/>
<path fill-rule="evenodd" clip-rule="evenodd" d="M57.9204 13.98C59.2092 15.2688 59.2092 17.3582 57.9204 18.6469L42.9681 33.5992C41.6794 34.8879 39.5899 34.8879 38.3012 33.5992C37.0124 32.3105 37.0124 30.221 38.3012 28.9323L53.2535 13.98C54.5423 12.6913 56.6317 12.6913 57.9204 13.98Z" fill="white"/>
<path fill-rule="evenodd" clip-rule="evenodd" d="M35.6118 36.2852C36.9006 37.5739 36.9006 39.6634 35.6118 40.9521L31.0902 45.4738C29.8014 46.7625 27.712 46.7625 26.4232 45.4738C25.1345 44.1851 25.1345 42.0956 26.4232 40.8069L30.9449 36.2852C32.2337 34.9965 34.3231 34.9965 35.6118 36.2852Z" fill="white"/>
<path fill-rule="evenodd" clip-rule="evenodd" d="M23.7388 48.1597C25.0275 49.4484 25.0275 51.5379 23.7388 52.8266L8.78646 67.7789C7.49772 69.0676 5.40827 69.0676 4.11953 67.7789C2.83079 66.4902 2.83079 64.4007 4.11953 63.112L19.0719 48.1597C20.3606 46.871 22.4501 46.871 23.7388 48.1597Z" fill="white"/>
<path fill-rule="evenodd" clip-rule="evenodd" d="M36.5982 1.5048C37.8869 2.79353 37.8869 4.88298 36.5982 6.17171L21.6458 21.124C20.3571 22.4127 18.2676 22.4127 16.9789 21.124C15.6902 19.8353 15.6902 17.7458 16.9789 16.4571L31.9313 1.5048C33.22 0.216072 35.3094 0.216071 36.5982 1.5048Z" fill="white"/>
<path fill-rule="evenodd" clip-rule="evenodd" d="M14.2935 23.8095C15.5822 25.0982 15.5822 27.1877 14.2935 28.4764L9.77179 32.9981C8.48306 34.2868 6.3936 34.2868 5.10486 32.9981C3.81613 31.7094 3.81613 29.6199 5.10486 28.3312L9.62656 23.8095C10.9153 22.5208 13.0048 22.5208 14.2935 23.8095Z" fill="white"/>
<path fill-rule="evenodd" clip-rule="evenodd" d="M2.41849 35.684C3.70723 36.9727 3.70723 39.0622 2.41849 40.3509L-12.5339 55.3032C-13.8226 56.5919 -15.912 56.5919 -17.2008 55.3032C-18.4895 54.0145 -18.4895 51.925 -17.2008 50.6363L-2.24844 35.684C-0.959701 34.3953 1.12975 34.3953 2.41849 35.684Z" fill="white"/>
<path fill-rule="evenodd" clip-rule="evenodd" d="M24.5513 -3.34517C25.84 -2.05644 25.84 0.0330049 24.5513 1.32174L20.0296 5.84342C18.7409 7.13215 16.6514 7.13215 15.3627 5.84342C14.0739 4.55469 14.0739 2.46525 15.3627 1.17651L19.8844 -3.34517C21.1731 -4.6339 23.2626 -4.6339 24.5513 -3.34517Z" fill="white"/>
<path fill-rule="evenodd" clip-rule="evenodd" d="M12.6783 8.52934C13.967 9.81807 13.967 11.9075 12.6783 13.1962L-2.27409 28.1485C-3.56283 29.4373 -5.65228 29.4373 -6.94102 28.1485C-8.22975 26.8598 -8.22975 24.7704 -6.94102 23.4816L8.01133 8.52934C9.30006 7.24061 11.3895 7.24061 12.6783 8.52934Z" fill="white"/>
<path fill-rule="evenodd" clip-rule="evenodd" d="M56.1626 32.6342C57.4514 33.9229 57.4514 36.0124 56.1626 37.3011L51.6409 41.8228C50.3522 43.1115 48.2627 43.1115 46.974 41.8228C45.6853 40.5341 45.6853 38.4446 46.974 37.1559L51.4957 32.6342C52.7844 31.3455 54.8739 31.3455 56.1626 32.6342Z" fill="white"/>
<path fill-rule="evenodd" clip-rule="evenodd" d="M44.2857 44.5087C45.5744 45.7974 45.5744 47.8869 44.2857 49.1756L29.3333 64.1279C28.0446 65.4166 25.9551 65.4166 24.6664 64.1279C23.3777 62.8392 23.3777 60.7497 24.6664 59.461L39.6187 44.5087C40.9075 43.22 42.9969 43.22 44.2857 44.5087Z" fill="white"/>
</g>
<defs>
<clipPath id="clip0_1_1774">
<rect width="55.2452" height="55" rx="27.5" fill="white"/>
</clipPath>
</defs>
</svg>
