<svg width="50" height="50" viewBox="0 0 50 50" fill="none" xmlns="http://www.w3.org/2000/svg">
<rect width="50" height="50" rx="25" fill="#262626"/>
<path d="M25.0029 18.3339C21.3139 18.3339 18.3383 21.3102 18.3383 25C18.3383 28.6898 21.3139 31.6661 25.0029 31.6661C28.6919 31.6661 31.6675 28.6898 31.6675 25C31.6675 21.3102 28.6919 18.3339 25.0029 18.3339ZM25.0029 29.3338C22.619 29.3338 20.67 27.3903 20.67 25C20.67 22.6097 22.6132 20.6662 25.0029 20.6662C27.3926 20.6662 29.3358 22.6097 29.3358 25C29.3358 27.3903 27.3868 29.3338 25.0029 29.3338ZM33.4946 18.0613C33.4946 18.9257 32.7986 19.6161 31.9401 19.6161C31.0759 19.6161 30.3856 18.9199 30.3856 18.0613C30.3856 17.2026 31.0817 16.5064 31.9401 16.5064C32.7986 16.5064 33.4946 17.2026 33.4946 18.0613ZM37.9086 19.6393C37.81 17.5565 37.3344 15.7116 35.8089 14.1916C34.2892 12.6715 32.4447 12.1958 30.3624 12.0914C28.2163 11.9695 21.7837 11.9695 19.6376 12.0914C17.5611 12.19 15.7166 12.6657 14.1911 14.1858C12.6656 15.7058 12.1958 17.5507 12.0914 19.6335C11.9695 21.7801 11.9695 28.2141 12.0914 30.3607C12.19 32.4435 12.6656 34.2884 14.1911 35.8084C15.7166 37.3285 17.5553 37.8042 19.6376 37.9086C21.7837 38.0305 28.2163 38.0305 30.3624 37.9086C32.4447 37.81 34.2892 37.3343 35.8089 35.8084C37.3286 34.2884 37.8042 32.4435 37.9086 30.3607C38.0305 28.2141 38.0305 21.7859 37.9086 19.6393ZM35.1361 32.664C34.6837 33.8011 33.8078 34.6771 32.6651 35.1354C30.954 35.8142 26.8938 35.6576 25.0029 35.6576C23.112 35.6576 19.046 35.8084 17.3407 35.1354C16.2038 34.6829 15.3279 33.8069 14.8697 32.664C14.1911 30.9525 14.3477 26.8913 14.3477 25C14.3477 23.1087 14.1969 19.0417 14.8697 17.336C15.3221 16.1989 16.198 15.3229 17.3407 14.8646C19.0518 14.1858 23.112 14.3424 25.0029 14.3424C26.8938 14.3424 30.9598 14.1916 32.6651 14.8646C33.802 15.3171 34.6779 16.1931 35.1361 17.336C35.8147 19.0475 35.6581 23.1087 35.6581 25C35.6581 26.8913 35.8147 30.9583 35.1361 32.664Z" fill="white"/>
</svg>
