<svg width="50" height="50" viewBox="0 0 50 50" fill="none" xmlns="http://www.w3.org/2000/svg">
<rect width="50" height="50" rx="25" fill="#262626"/>
<path d="M33.2475 12.2586C33.2475 12.0598 33.1685 11.8691 33.0279 11.7285C32.8873 11.5879 32.6966 11.5089 32.4978 11.5089H28.749C26.8613 11.4148 25.0131 12.0718 23.6083 13.3361C22.2034 14.6005 21.3561 16.3695 21.2515 18.2566V22.3053H17.5027C17.3038 22.3053 17.1131 22.3843 16.9725 22.5249C16.8319 22.6655 16.7529 22.8562 16.7529 23.0551V26.9538C16.7529 27.1526 16.8319 27.3433 16.9725 27.4839C17.1131 27.6246 17.3038 27.7035 17.5027 27.7035H21.2515V37.7502C21.2515 37.9491 21.3304 38.1398 21.471 38.2804C21.6117 38.421 21.8024 38.5 22.0012 38.5H26.4997C26.6986 38.5 26.8893 38.421 27.0299 38.2804C27.1705 38.1398 27.2495 37.9491 27.2495 37.7502V27.7035H31.1782C31.3449 27.7059 31.5077 27.6527 31.6408 27.5522C31.7738 27.4517 31.8696 27.3097 31.913 27.1487L32.9926 23.25C33.0224 23.1392 33.0264 23.0231 33.0043 22.9105C32.9822 22.7979 32.9345 22.6919 32.865 22.6007C32.7955 22.5094 32.7059 22.4353 32.6033 22.3841C32.5006 22.3329 32.3876 22.306 32.2728 22.3053H27.2495V18.2566C27.2868 17.8855 27.4611 17.5416 27.7384 17.292C28.0156 17.0425 28.376 16.9052 28.749 16.9071H32.4978C32.6966 16.9071 32.8873 16.8281 33.0279 16.6875C33.1685 16.5469 33.2475 16.3562 33.2475 16.1573V12.2586Z" fill="white"/>
</svg>
